<svg id="logo-big-white" xmlns="http://www.w3.org/2000/svg" width="219.29" height="79.63" viewBox="0 0 219.29 79.63">
  <path id="Path_77" data-name="Path 77" d="M54.99,22.93,40.55,31.28V47.96L54.99,56.3l4.38-2.53V43.93l-4.38,2.53-5.92-3.42V36.2l5.92-3.42,5.92,3.42V54.62l-5.26,7.16-1.69,6.71,15.48-8.95V31.27Z" fill="#fff"/>
  <path id="Path_78" data-name="Path 78" d="M10.07,25.48l-.01,9.84,4.39-2.52,5.92,3.42v6.84l-5.92,3.42L8.52,43.06V15.02L0,19.93V47.98l14.45,8.34,14.44-8.34V31.3L14.45,22.96Z" fill="#fff"/>
  <path id="Path_79" data-name="Path 79" d="M40.55,47.96,54.99,56.3V46.46l-5.92-3.42Z" fill="#bcbec0"/>
  <path id="Path_80" data-name="Path 80" d="M54.99,22.93v9.85l5.92,3.42,8.53-4.93Z" fill="#bcbec0"/>
  <path id="Path_81" data-name="Path 81" d="M14.45,32.8l5.92,3.42,8.52-4.92L14.45,22.96Z" fill="#bcbec0"/>
  <path id="Path_82" data-name="Path 82" d="M0,47.98l14.45,8.34V46.48L8.52,43.06Z" fill="#bcbec0"/>
  <path id="Path_83" data-name="Path 83" d="M34.55,3.48,1.27,21.06l-.8-1.39L34.55,0Z" fill="#fff"/>
  <path id="Path_84" data-name="Path 84" d="M34.55,3.48,54.99,13.61h0L34.55,0Z" fill="#fff"/>
  <path id="Path_85" data-name="Path 85" d="M34.72,77.88,14.47,66.13h0l20.25,13.5Z" fill="#fff"/>
  <path id="Path_86" data-name="Path 86" d="M34.7,77.88,54.49,62.85l.25,5.19L34.72,79.63Z" fill="#fff"/>
  <path id="Path_87" data-name="Path 87" d="M34.72,32.84l-3.46-2,3.46-1.99,3.47,2Z" fill="#fff"/>
  <path id="Path_88" data-name="Path 88" d="M34.55,3.48,1.32,22.87l-.8-1.39L33.72,2.43Z" fill="#fff"/>
  <path id="Path_89" data-name="Path 89" d="M34.55,3.48,1.32,24.61l-.8-1.38L34.55,3.48Z" fill="#fff"/>
  <path id="Path_90" data-name="Path 90" d="M34.55,3.48,54.99,13.61h0L34.55,1.73Z" fill="#fff"/>
  <path id="Path_91" data-name="Path 91" d="M34.72,76.15,60.91,54.62,53.97,66.78,34.7,77.9Z" fill="#fff"/>
  <path id="Path_92" data-name="Path 92" d="M34.72,76.15,60.91,54.62l-5.4,11.51L34.8,76.25Z" fill="#fff"/>
  <path id="Path_93" data-name="Path 93" d="M34.72,76.15,14.47,66.13h0l20.25,13.5Z" fill="#fff"/>
  <path id="Path_96" data-name="Path 96" d="M1.521,0V-13.3H6.364a6.048,6.048,0,0,1,3.423.816,2.626,2.626,0,0,1,1.2,2.3A2.723,2.723,0,0,1,10.256-8.3,3.826,3.826,0,0,1,8.4-7.181v.037A3.687,3.687,0,0,1,10.664-6.1a2.932,2.932,0,0,1,.849,2.125,3.551,3.551,0,0,1-1.308,2.9A5.474,5.474,0,0,1,6.633,0Zm3-11.1v3.154H5.835A2.2,2.2,0,0,0,7.3-8.391,1.534,1.534,0,0,0,7.83-9.63q0-1.466-2.189-1.466Zm0,5.381v3.507H6.142A2.5,2.5,0,0,0,7.77-2.69a1.612,1.612,0,0,0,.589-1.317,1.5,1.5,0,0,0-.58-1.252A2.565,2.565,0,0,0,6.16-5.715ZM21.81,0H13.887V-13.3h3V-2.431H21.81Zm7.124.232a6.193,6.193,0,0,1-4.657-1.86,6.678,6.678,0,0,1-1.8-4.847,7.156,7.156,0,0,1,1.828-5.1,6.328,6.328,0,0,1,4.843-1.948,6.038,6.038,0,0,1,4.606,1.865,6.875,6.875,0,0,1,1.758,4.917,7.041,7.041,0,0,1-1.823,5.056A6.257,6.257,0,0,1,28.934.232Zm.13-11.179a3.016,3.016,0,0,0-2.5,1.183,4.932,4.932,0,0,0-.928,3.131,4.841,4.841,0,0,0,.928,3.126,2.973,2.973,0,0,0,2.431,1.15,3,3,0,0,0,2.458-1.118,4.788,4.788,0,0,0,.909-3.1A5.188,5.188,0,0,0,31.476-9.8,2.874,2.874,0,0,0,29.064-10.947ZM47.442-.473a8.773,8.773,0,0,1-3.8.705,6.411,6.411,0,0,1-4.815-1.8,6.579,6.579,0,0,1-1.753-4.8,7.029,7.029,0,0,1,1.971-5.177,6.9,6.9,0,0,1,5.116-1.985,9.568,9.568,0,0,1,3.284.492v2.885a5.819,5.819,0,0,0-3.043-.8,4.037,4.037,0,0,0-3.024,1.178,4.372,4.372,0,0,0-1.15,3.191A4.288,4.288,0,0,0,41.31-3.5a3.835,3.835,0,0,0,2.922,1.146,6.233,6.233,0,0,0,3.21-.854ZM61,0H57.22L53.342-5.78a5.54,5.54,0,0,1-.353-.733h-.046V0h-3V-13.3h3v6.29h.046q.111-.26.371-.742L57.034-13.3h3.572L55.967-6.958ZM71.45-.473a8.773,8.773,0,0,1-3.8.705,6.411,6.411,0,0,1-4.815-1.8,6.579,6.579,0,0,1-1.753-4.8,7.029,7.029,0,0,1,1.971-5.177,6.9,6.9,0,0,1,5.116-1.985,9.568,9.568,0,0,1,3.284.492v2.885a5.819,5.819,0,0,0-3.043-.8,4.037,4.037,0,0,0-3.024,1.178,4.372,4.372,0,0,0-1.15,3.191A4.288,4.288,0,0,0,65.318-3.5,3.835,3.835,0,0,0,68.24-2.356a6.233,6.233,0,0,0,3.21-.854ZM85.467,0H82.462V-5.418H76.951V0h-3V-13.3h3V-8h5.511V-13.3h3.006Zm14.926,0H97.128l-.946-2.959H91.451L90.514,0H87.266l4.843-13.3h3.553ZM95.5-5.26,94.067-9.732a5.828,5.828,0,0,1-.223-1.2H93.77a5.074,5.074,0,0,1-.232,1.16L92.091-5.26ZM105.236,0h-3V-13.3h3Zm15.177,0h-3.024l-5.483-8.359a12.086,12.086,0,0,1-.668-1.1H111.2q.074.705.074,2.152V0h-2.83V-13.3h3.229l5.279,8.1q.362.547.668,1.085h.037a14.225,14.225,0,0,1-.074-1.828V-13.3h2.83ZM4.518,22h-3V8.7h3ZM19.89,22H16.866l-5.483-8.359a12.087,12.087,0,0,1-.668-1.1h-.037q.074.705.074,2.152V22H7.922V8.7h3.229l5.279,8.1q.362.547.668,1.085h.037a14.224,14.224,0,0,1-.074-1.828V8.7h2.83ZM32.655,11.136H28.861V22H25.855V11.136H22.079V8.7H32.655ZM42.8,22H34.825V8.7H42.5v2.44H37.822V14.1h4.351v2.431H37.822v3.043H42.8ZM53.24,22H45.318V8.7h3V19.569H53.24Zm10.093,0H55.411V8.7h3V19.569h4.926ZM68.5,22h-3V8.7h3Zm14.324-.891a9.574,9.574,0,0,1-4.843,1.123,7,7,0,0,1-5.061-1.777,6.463,6.463,0,0,1-1.851-4.894,6.832,6.832,0,0,1,2.022-5.112,7.369,7.369,0,0,1,5.381-1.976,10.93,10.93,0,0,1,3.729.584v2.811a7.413,7.413,0,0,0-3.767-.891A4.044,4.044,0,0,0,75.4,12.189a4.448,4.448,0,0,0-1.174,3.233A4.461,4.461,0,0,0,75.277,18.6a3.711,3.711,0,0,0,2.844,1.123,3.958,3.958,0,0,0,1.707-.306v-2.6H77.165V14.42h5.659ZM93.771,22H85.792V8.7h7.672v2.44H88.789V14.1H93.14v2.431H88.789v3.043h4.982Zm14.481,0h-3.024l-5.483-8.359a12.086,12.086,0,0,1-.668-1.1H99.04q.074.705.074,2.152V22h-2.83V8.7h3.229l5.279,8.1q.362.547.668,1.085h.037a14.225,14.225,0,0,1-.074-1.828V8.7h2.83Zm12.96-.473a8.773,8.773,0,0,1-3.8.705,6.411,6.411,0,0,1-4.815-1.8,6.579,6.579,0,0,1-1.753-4.8,7.029,7.029,0,0,1,1.971-5.177,6.9,6.9,0,0,1,5.116-1.985,9.568,9.568,0,0,1,3.284.492v2.885a5.819,5.819,0,0,0-3.043-.8,4.037,4.037,0,0,0-3.024,1.178,4.372,4.372,0,0,0-1.15,3.191A4.288,4.288,0,0,0,115.08,18.5,3.835,3.835,0,0,0,118,19.644a6.233,6.233,0,0,0,3.21-.854ZM131.89,22h-7.979V8.7h7.672v2.44h-4.676V14.1h4.351v2.431h-4.351v3.043h4.982ZM12.441,43.109A9.574,9.574,0,0,1,7.6,44.232a7,7,0,0,1-5.061-1.777A6.463,6.463,0,0,1,.687,37.562,6.832,6.832,0,0,1,2.709,32.45,7.369,7.369,0,0,1,8.09,30.474a10.93,10.93,0,0,1,3.729.584v2.811a7.413,7.413,0,0,0-3.767-.891,4.044,4.044,0,0,0-3.038,1.211,4.448,4.448,0,0,0-1.174,3.233A4.461,4.461,0,0,0,4.894,40.6a3.711,3.711,0,0,0,2.844,1.123,3.958,3.958,0,0,0,1.707-.306v-2.6H6.782V36.42h5.659ZM26.375,44H22.933l-2.069-3.423q-.232-.39-.445-.7a3.865,3.865,0,0,0-.431-.524,1.716,1.716,0,0,0-.455-.334,1.154,1.154,0,0,0-.515-.116h-.807V44h-3V30.7h4.75q4.843,0,4.843,3.618a3.747,3.747,0,0,1-.213,1.285,3.569,3.569,0,0,1-.6,1.062,3.823,3.823,0,0,1-.942.816,4.856,4.856,0,0,1-1.229.538v.037a1.907,1.907,0,0,1,.575.3,4.119,4.119,0,0,1,.538.487,6.8,6.8,0,0,1,.5.6q.237.32.431.626ZM18.211,32.941v3.7h1.3a2.153,2.153,0,0,0,1.549-.557,1.858,1.858,0,0,0,.594-1.4q0-1.744-2.087-1.744ZM33.239,44.232a6.193,6.193,0,0,1-4.657-1.86,6.678,6.678,0,0,1-1.8-4.847,7.156,7.156,0,0,1,1.828-5.1,6.328,6.328,0,0,1,4.843-1.948,6.038,6.038,0,0,1,4.606,1.865,6.875,6.875,0,0,1,1.758,4.917,7.041,7.041,0,0,1-1.823,5.056A6.257,6.257,0,0,1,33.239,44.232Zm.13-11.179a3.016,3.016,0,0,0-2.5,1.183,4.932,4.932,0,0,0-.928,3.131,4.841,4.841,0,0,0,.928,3.126,3.2,3.2,0,0,0,4.889.032,4.788,4.788,0,0,0,.909-3.1,5.188,5.188,0,0,0-.881-3.219A2.874,2.874,0,0,0,33.369,33.053Zm19.686,5.186q0,5.993-5.585,5.993-5.418,0-5.418-5.854V30.7h3.006v7.719q0,3.229,2.523,3.229,2.477,0,2.477-3.117V30.7h3Zm6.076,1.178V44h-3V30.7h4.694q5.028,0,5.028,4.24a4.068,4.068,0,0,1-1.443,3.242,5.715,5.715,0,0,1-3.855,1.239Zm0-6.42v4.147h1.178q2.394,0,2.394-2.1Q62.7,33,60.309,33Z" transform="translate(87.4 26.16)" fill="#fff"/>
  <path id="Path_94" data-name="Path 94" d="M34.72,28.85l-3.46,1.99,3.46,2,3.47-1.99Z" fill="#fff"/>
  <path id="Path_95" data-name="Path 95" d="M30.47,32.19V47.97l4.25,2.45,4.24-2.45-.01-15.78-4.23,2.45Z" fill="#fff"/>
</svg>
